<?xml version="1.0" encoding="UTF-8" standalone="no"?>
<svg
   xmlns:dc="http://purl.org/dc/elements/1.1/"
   xmlns:cc="http://creativecommons.org/ns#"
   xmlns:rdf="http://www.w3.org/1999/02/22-rdf-syntax-ns#"
   xmlns:svg="http://www.w3.org/2000/svg"
   xmlns="http://www.w3.org/2000/svg"
   viewBox="0 0 835.66669 620.18665"
   height="620.18665"
   width="835.66669"
   xml:space="preserve"
   id="svg2"
   version="1.1"><metadata
     id="metadata8"><rdf:RDF><cc:Work
         rdf:about=""><dc:format>image/svg+xml</dc:format><dc:type
           rdf:resource="http://purl.org/dc/dcmitype/StillImage" /></cc:Work></rdf:RDF></metadata><defs
     id="defs6" /><g
     transform="matrix(1.3333333,0,0,-1.3333333,0,620.18667)"
     id="g10"><g
       transform="scale(0.1)"
       id="g12"><path
         id="path14"
         style="fill:#aab6bb;fill-opacity:1;fill-rule:evenodd;stroke:none"
         d="m 2503.87,4043.23 c 82.55,-144.21 171.38,-299.92 284.24,-496.39 -55.39,-89.87 -117.04,-192.28 -179.74,-294.69 -193.33,-317.69 -386.66,-635.37 -610.29,-1000.08 v 0 c -93.01,-141.08 -180.79,-246.63 -313.51,-315.6 -136.9,-68.97 -325,-103.46 -617.61,-103.46 H 0 v 506.84 h 1066.96 v 0 c 392.93,0 466.08,117.04 613.43,356.35 20.9,33.44 43.89,70.01 70.02,110.77 l 1.04,2.09 752.42,1234.17 z m 908.12,-597.75 c -80.47,-142.12 -173.48,-303.06 -283.2,-494.3 -200.65,-331.27 -411.74,-658.36 -618.65,-1007.4 -268.57,-449.35 -528.78,-729.42 -1240.44,-729.42 -415.919,1.05 -830.794,0 -1246.7078,0 H 0 v 516.24 h 1066.96 v 0 c 310.38,0 513.11,37.62 663.59,114.95 154.66,79.43 251.85,195.42 354.26,352.17 l 1.05,1.05 c 186.01,303.05 398.15,652.09 610.29,1000.08 45.98,76.29 93.01,153.62 149.44,246.63 81.51,-142.12 173.47,-303.06 283.2,-494.3 200.64,-331.27 411.73,-658.36 619.69,-1007.4 267.53,-449.35 527.74,-729.42 1239.4,-729.42 415.91,1.05 831.83,0 1247.75,0 h 24.03 V 1730.6 H 5190.61 v 0 c -310.37,0 -512.06,37.62 -663.59,114.95 -154.66,79.43 -251.85,195.42 -354.26,352.17 l -1.04,1.05 c -186.02,303.05 -398.16,652.09 -610.3,1000.08 -45.98,76.29 -93,153.62 -149.43,246.63 z m 341.72,597.75 c -82.56,-144.21 -171.38,-299.92 -283.2,-496.39 54.34,-89.87 117.04,-192.28 178.7,-294.69 193.32,-317.69 386.65,-635.37 610.29,-1000.08 v 0 c 93,-141.08 180.79,-246.63 313.5,-315.6 136.9,-68.97 325,-103.46 617.61,-103.46 h 1069.05 v 506.84 H 5190.61 v 0 c -392.93,0 -465.03,117.04 -613.43,356.35 -20.9,33.44 -43.89,70.01 -70.01,110.77 l -1.05,2.09 -752.41,1234.17 z M 5684.9,2955.36 c -524.6,0 -543.41,-9.4 -685.53,240.36 -296.78,483.84 -597.75,975 -897.67,1455.71 -110.77,-193.33 -198.55,-346.95 -289.47,-506.84 L 4593.9,2862.36 v 0 c 26.13,-39.71 49.12,-77.33 71.06,-112.87 127.5,-205.86 189.15,-307.23 525.65,-306.19 h 1069.05 v 512.06 c -192.28,0 -383.52,0 -574.76,0 z m -5111.185,0 c 523.555,0 542.365,-9.4 684.485,240.36 296.79,483.84 598.8,975 897.67,1455.71 110.78,-193.33 198.56,-346.95 290.52,-506.84 L 1663.67,2862.36 v 0 c -25.08,-39.71 -49.12,-77.33 -71.06,-112.87 -127.49,-205.86 -189.15,-307.23 -525.65,-306.19 H 0 v 512.06 c 191.238,0 382.477,0 573.715,0 v 0" /><path
         id="path16"
         style="fill:#173e7d;fill-opacity:1;fill-rule:evenodd;stroke:none"
         d="m 1738.1,374.91 h 143.09 l -29.57,109.699 c -15.27,53.422 -22.9,98.262 -27.66,126.871 -5.73,28.622 -6.68,57.239 -10.5,85.86 h -4.77 c -1.9,-28.621 -4.77,-57.238 -11.44,-85.86 -4.78,-28.609 -14.32,-73.449 -29.58,-126.871 L 1738.1,374.91 Z M 959.672,27.6719 920.566,407.34 c -2.871,27.66 -4.773,59.152 -7.636,88.719 -1.903,29.57 -5.719,57.242 -6.676,86.812 -4.766,-26.711 -10.492,-57.242 -18.121,-86.812 -6.684,-31.489 -15.27,-63.918 -26.715,-98.258 L 752.668,27.6719 H 547.57 L 436.914,397.801 c -8.594,34.34 -18.125,66.769 -26.715,98.258 -6.679,29.57 -11.449,60.101 -16.215,86.812 -2.871,-29.57 -4.777,-57.242 -7.632,-86.812 -1.911,-29.567 -5.731,-61.059 -6.68,-88.719 L 336.738,27.6719 H 0 L 163.121,986.391 h 356.785 l 66.778,-237.539 c 1.902,-7.633 6.671,-17.172 10.492,-32.43 29.57,-99.211 43.883,-183.152 52.469,-247.07 h 5.714 c 5.727,41.019 13.36,83.949 22.899,130.687 11.457,44.84 26.707,97.301 44.836,154.543 l 68.683,231.809 H 1147.6 L 1295.05,71.6719 1623.63,986.391 h 383.49 L 2341.94,27.6719 V 986.391 h 435.01 c 125.92,0 222.28,-27.661 288.09,-82.039 68.69,-57.243 101.12,-135.461 101.12,-240.403 0,-68.679 -18.12,-125.918 -50.55,-167.89 -34.35,-44.84 -78.23,-68.68 -135.47,-77.27 L 3236.76,27.6719 H 2849.45 L 2680.6,343.43 V 27.6719 H 1972.77 L 1941.29,147.871 H 1680.86 L 1652.25,27.6719 H 959.672 Z m 2440.208,0 V 672.531 h -192.7 v 313.86 h 729.78 V 672.531 H 3743.3 V 27.6719 h -343.42 z m 572.38,0 V 986.391 h 352 V 27.6719 h -352 z m 480.79,0 V 986.391 h 338.65 l 299.54,-501.782 c -4.77,23.852 -8.59,48.661 -8.59,73.461 -0.95,27.66 -4.77,63.91 -4.77,105.879 v 322.442 h 333.89 V 27.6719 H 5071.2 L 4777.39,525.629 c 1.91,-20.027 4.76,-44.828 6.67,-68.68 2.87,-22.898 2.87,-52.469 2.87,-83.949 V 27.6719 h -333.88 z m 1020.73,82.0271 113.51,268.071 c 48.65,-34.34 92.53,-57.239 130.69,-75.36 39.12,-14.308 73.45,-23.851 107.79,-23.851 24.81,0 41.98,4.761 55.34,12.402 15.26,10.488 20.99,21.941 20.99,40.059 0,22.902 -34.35,43.89 -101.13,58.191 -20.98,4.781 -41.01,8.59 -48.64,10.5 -73.46,19.078 -129.74,50.559 -168.86,94.441 -36.25,42.93 -55.32,101.118 -55.32,165.028 0,104.941 36.25,187.929 112.56,251.851 72.5,65.821 169.81,96.339 290.01,96.339 53.41,0 107.79,-6.67 160.26,-20.979 53.42,-14.309 108.75,-37.211 163.13,-65.821 L 6149.17,668.719 c -34.34,24.812 -68.69,44.84 -101.12,57.242 -31.48,13.348 -65.83,20.031 -96.35,20.031 -24.8,0 -43.88,-4.773 -55.33,-11.453 -15.26,-8.578 -20.03,-18.117 -20.03,-32.43 0,-29.578 48.65,-54.379 142.13,-72.5 15.27,-2.859 29.58,-7.629 38.16,-7.629 62.97,-15.261 115.43,-45.789 153.59,-91.578 39.11,-45.793 57.24,-102.082 57.24,-166.941 0,-106.852 -38.16,-192.699 -113.52,-260.43 C 6075.72,36.25 5974.6,0 5853.44,0 5789.52,0 5727.52,10.5 5663.61,31.4922 5601.6,45.7891 5537.68,73.4609 5473.78,109.699 Z M 2680.6,739.309 V 551.391 h 55.33 c 31.48,0 59.15,9.539 75.36,24.8 18.13,16.219 27.67,41.02 27.67,68.688 0,29.57 -9.54,53.422 -27.67,71.543 -16.21,16.219 -43.88,22.887 -75.36,22.887 h -55.33 v 0" /></g></g></svg>